<svg xmlns="http://www.w3.org/2000/svg" xmlns:xlink="http://www.w3.org/1999/xlink" width="54.163" height="54.163" viewBox="0 0 54.163 54.163"><defs><style>.a{fill:none;}.b{fill:#ffd500;}.c{clip-path:url(#a);}.d{fill:#fff;}.e{fill:#e4032e;}</style><clipPath id="a"><path d="M60.168,69.435A15.568,15.568,0,1,0,44.6,53.868,15.572,15.572,0,0,0,60.168,69.435Z" transform="translate(-44.6 -38.3)"/></clipPath></defs><g transform="translate(-24.708 -18.409)"><g transform="translate(24.708 18.409)"><g transform="translate(0 0)"><circle class="a" cx="23.38" cy="23.38" r="23.38" transform="matrix(0.985, -0.173, 0.173, 0.985, 0, 8.108)"/><g transform="translate(11.512 11.511)"><path class="b" d="M57.737,38.863l.289-.405.521-.058.347.289h2.546l.347-.289.521.058.289.405,2.431.579.463-.174.463.174.174.405L68.327,41l.463-.058.463.289.058.463,1.852,1.678h.521l.347.405-.058.463,1.447,2.026.405.174.289.463-.174.463.868,2.315.463.231.116.521-.289.405.289,2.488.347.347v.463l-.347.347L75.1,56.977l.289.405-.116.521-.463.231-.868,2.315.174.463-.289.463-.405.116-1.447,2.083.058.463-.347.405h-.521l-1.852,1.678-.058.463-.463.289-.463-.058-2.2,1.157-.174.405-.463.174-.463-.174-2.431.579-.289.405-.521.058-.347-.289H58.894l-.347.289-.521-.058-.289-.405-2.431-.579-.405.174-.463-.174-.231-.405-2.2-1.157-.463.058-.405-.289-.116-.463-1.852-1.678h-.521l-.289-.405v-.463l-1.389-2.026-.463-.174-.231-.463.116-.463-.868-2.315-.405-.231-.116-.521.231-.405-.289-2.488-.347-.347v-.463l.347-.347.289-2.488-.231-.405.116-.521.405-.231.868-2.315-.116-.463.231-.463.463-.116,1.389-2.083v-.463l.289-.405h.521L51.024,41.7l.058-.463.463-.289.463.058,2.2-1.157.231-.405.463-.174.405.174Z" transform="translate(-44.6 -38.342)"/><g class="c"><path d="M61.719,38.2l-1.678,9.375L58.363,38.2m3.82.058-.637,9.491,3.877-8.739m.405.231-2.894,9.086,5.845-7.581m.405.289-4.977,8.1,7.465-5.961m.289.405L65.192,50.3,73.873,46.3m.174.463-8.218,4.861L75.2,49.832m.174.463-9.144,2.778,9.549.521m0,.463-9.549.521,9.144,2.778m-.116.463-9.375-1.794L74.1,60.886m-.231.463-8.681-3.993,6.771,6.713m-.289.347-7.465-5.9,4.977,8.1m-.405.289-5.845-7.581,2.894,9.086m-4.109,1.042-1.678-9.375-1.678,9.375m-.463-.058.637-9.491-3.877,8.739m-.405-.231,2.894-9.086L51.3,66.9m-.405-.289,4.977-8.1-7.408,5.9m-.347-.347,6.771-6.713L46.21,61.349m-.174-.463,8.16-4.861-9.375,1.794m-.116-.463,9.144-2.778L44.3,54.057m0-.463,9.549-.521L44.705,50.3m.116-.463L54.2,51.626l-8.16-4.861m.231-.463L54.948,50.3,48.12,43.582m.347-.347L55.932,49.2l-4.977-8.1m.347-.347,5.845,7.581-2.894-9.086m.463-.174,3.877,8.739-.637-9.491m7.408,30.267-3.877-8.739.637,9.491" transform="translate(-44.474 -38.258)"/></g><g class="c"><path class="d" d="M70.384,42.245l-1.157,1.331a6.935,6.935,0,0,0,.694.637l-.347.347a8.9,8.9,0,0,0-1.1-.984l1.447-1.794m4.688,6.424-2.141.868.174.521,2.2-.752m.868,3.935-1.794-.347h0l1.62-.752-.116-.579-2.141,1.1a2.374,2.374,0,0,1,.058.637l2.315.579m-.637,5.324-.579-.174-.174.521-1.62-.579-.174.521,1.62.637c-.058.174-.174.347-.231.521l.521.231m-1.215,2.257L71.253,61.4a3.231,3.231,0,0,0-.289.463l1.852,1.331m-1.678,1.968-.405-.405-.405.405-1.157-1.273c-.116.116-.289.231-.405.347l1.1,1.331c-.174.116-.289.231-.463.347l.347.463m-2.083,1.389-1.1-2.026c-.174.058-.289.174-.463.231l1.042,2.083M62.688,69.5l-.116-.579c.289-.058.579-.116.926-.174l-.116-.347c-.289.058-.579.116-.81.174l-.058-.463c.231-.058.521-.116.81-.174l-.058-.405-.868.174-.116-.463a8.991,8.991,0,0,0,1.331-.289l.174.579a3.262,3.262,0,0,0,.694-.231l.116-.463.347.752-.463,1.447m-.289-.289.231-.926a1.788,1.788,0,0,1-.463.116l.231.81Zm-7.523.579.521-2.257c-.174-.058-.347-.058-.521-.116l-.579,2.2m-2.662-.926.984-2.083c-.463-.231-.868-.463-1.273-.694l-.289.463a6.326,6.326,0,0,0,.868.463L52.907,68m-2.662-1.736,1.447-1.794a8.9,8.9,0,0,1-1.1-.984l-.347.347a6.936,6.936,0,0,0,.694.637L49.782,65.8m-2.894-3.357,1.736-.521h0l-1.1,1.447.347.463,1.389-1.968-.347-.521-2.315.579m-1.968-5.093.579-.116c-.058-.174-.058-.347-.116-.579l1.736-.231c0-.174-.058-.347-.058-.521l-1.736.174c0-.174-.058-.405-.058-.579l-.579.058m0-1.91,2.315.116a1.6,1.6,0,0,1,.058-.521L45.9,52.6v-.058c0-.174.231-.289.405-.347l.521-.174a2.056,2.056,0,0,1,.116-.579,6.617,6.617,0,0,0-.81.347.578.578,0,0,0-.289.231h0a.534.534,0,0,0-.521-.579c-.405-.058-.637.347-.694.752h-.116m.81-.231c.231,0,.231.231.231.347v.231l-.579-.058v-.231C45.037,52.025,45.152,51.967,45.326,51.967Zm0-3.241,1.91,1.678c.058-.174.116-.405.174-.579L47,49.479a6.49,6.49,0,0,1,.289-.752h.521c.058-.174.174-.405.231-.579l-2.488-.058m.347.579.926.058a3.988,3.988,0,0,1-.174.463l-.752-.521Zm2.951-5.556,1.678,1.563.347-.347-1.042-1.1,1.62.521c.174-.116.289-.231.463-.347l-1.389-1.794-.463.347.984,1.215-1.678-.579m13.137-1.736a2.139,2.139,0,0,0,.637.289c.463.116.984,0,1.1-.521.058-.289,0-.579-.521-.81-.231-.116-.289-.231-.289-.289a.322.322,0,0,1,.405-.174,1.14,1.14,0,0,1,.463.231l.232-.347a2.139,2.139,0,0,0-.637-.289.791.791,0,0,0-1.042.463.6.6,0,0,0,.347.752c.231.116.463.231.463.405-.058.231-.231.174-.405.174a1.163,1.163,0,0,1-.463-.231Zm3.241-.174a1.147,1.147,0,0,0,.521,1.62,1.131,1.131,0,0,0,1.62-.463,1.147,1.147,0,0,0-.521-1.62A1.092,1.092,0,0,0,65.755,40.682Zm.521.289c.231-.463.579-.521.868-.347s.405.463.231.926c-.231.405-.579.521-.868.347A.606.606,0,0,1,66.276,40.971ZM73.51,54.919a3.263,3.263,0,0,0-.231.694c-.058.521.116.984.637,1.042.289.058.579-.116.752-.637.058-.231.174-.289.289-.289s.231.116.174.405a.924.924,0,0,1-.174.463l.405.231a3.263,3.263,0,0,0,.231-.694c.058-.405-.116-.926-.579-.984a.6.6,0,0,0-.694.463c-.116.231-.174.521-.347.463-.231,0-.231-.231-.174-.405a1.839,1.839,0,0,1,.174-.521Zm-25.7,4.63a2.9,2.9,0,0,0-.116-.694c-.174-.463-.521-.81-1.042-.579-.289.116-.463.347-.347.926.058.289,0,.347-.116.405s-.289,0-.347-.289a1.128,1.128,0,0,1-.058-.463h-.463a1.468,1.468,0,0,0,.116.694c.174.405.521.752.984.579a.572.572,0,0,0,.405-.694c0-.289-.116-.521.116-.579.174-.058.289.116.347.231.058.174.058.347.116.521Zm4.456-17.767a1.131,1.131,0,0,0,1.62.463,1.147,1.147,0,0,0,.521-1.62,1.131,1.131,0,0,0-1.62-.463A1.206,1.206,0,0,0,52.271,41.782Zm.579-.289c-.231-.463-.116-.752.174-.926s.637-.058.868.347c.231.463.116.752-.231.926C53.37,42.013,53.081,41.955,52.849,41.492ZM56.09,41.2a2.818,2.818,0,0,0,.694-.058c.463-.116.868-.405.752-.984-.058-.289-.289-.463-.868-.463-.289,0-.347-.058-.347-.116-.058-.116.058-.231.289-.347.116,0,.347-.058.463,0l.058-.463a1.152,1.152,0,0,0-.752.058c-.405.116-.81.463-.694.926.116.405.405.463.694.521.289,0,.521-.058.579.174s-.116.289-.289.347a1.785,1.785,0,0,1-.521.058Zm3.993-1.042a.579.579,0,1,0-.579-.579A.58.58,0,0,0,60.083,40.161ZM71.542,46.18a.579.579,0,1,0,.116-.81A.612.612,0,0,0,71.542,46.18ZM59.5,68.518a.579.579,0,1,0,.579-.579A.58.58,0,0,0,59.5,68.518ZM48.625,46.18a.579.579,0,1,0-.81.116A.612.612,0,0,0,48.625,46.18Z" transform="translate(-44.516 -38.483)"/></g><g transform="translate(12.905 12.905)"><path class="e" d="M71.872,65.572a.958.958,0,0,1-.694.289H70.6a.989.989,0,0,0-.752.405h-.231a.989.989,0,0,0-.752-.405h-.579a.975.975,0,0,1-.984-.984V61" transform="translate(-67.069 -60.768)"/><path class="d" d="M67.3,61h4.8v3.877a.958.958,0,0,1-.289.694" transform="translate(-67.069 -60.768)"/><path d="M72.224,64.709a1.187,1.187,0,0,1-1.215,1.215H70.43a.627.627,0,0,0-.637.463h-.463a.768.768,0,0,0-.637-.463h-.579A1.187,1.187,0,0,1,66.9,64.709V60.6h5.324Zm-.463-3.588h-4.34v3.588a.7.7,0,0,0,.694.694h.579a1.178,1.178,0,0,1,.868.347h0a1.178,1.178,0,0,1,.868-.347h.579a.7.7,0,0,0,.694-.694V61.121Z" transform="translate(-66.9 -60.6)"/></g></g></g></g></g></svg>